<?xml version="1.0" encoding="UTF-8"?><svg id="logo" class="logo" xmlns="http://www.w3.org/2000/svg" viewBox="0 0 230.68 294.33"><g><path class="cls-1" d="m217.91,158.27c-.63-.54-1.36-.96-2.17-1.27-.52-.22-1.06-.37-1.61-.44-4.8-.68-10.38,3.62-8.63,8.83l.37.16c1.35-2.65,3.82-4.35,6.59-5.03.1.8.19,1.61.26,2.41.04.5.08.99.11,1.51h0c.32,4.53.17,9.62-1.25,14.05-.02.07-.04.15-.07.21-.17.48-.33.95-.52,1.42,0,0-.01.02-.01.03s0,.02-.01.03c-.59,1.42-1.33,2.74-2.27,3.93h0c-1.36,1.73-3.11,3.16-5.35,4.15l.19.46c1.38.25,2.76.14,4.08-.24-.03.14-.07.27-.1.41.06-.14.12-.3.18-.44,1.94-.57,3.72-1.74,5.13-3.21,5.08-5.53,6.07-13.9,3.38-20.76-.58-1.49-1.33-2.9-2.26-4.2,1.13-.14,2.29-.11,3.42.1.06,0,.13.01.19.03l1.95.37.12-.38c-.45-.84-1.02-1.55-1.7-2.12Z"/><path class="cls-1" d="m226.49,148.56c-1.12-1.56-2.97-3.18-5.06-3.74-.15-.03-.29-.07-.45-.11,6.79-35.02,4.72-72.55-14.75-101.59-4.27-6.27-9.32-11.94-14.96-16.94C174.75,11.5,153.17,2.46,131.22.34c-22.09-2.07-44.84,5.58-61.97,19.09-4.13,3.26-8.04,6.82-11.64,10.65-22.76.67-44.57,14.54-53.16,36.47-3.66,9.68-6.11,21.63-3.1,31.83,4.18,12.73,16.77,11.84,27.36,7.55.34-.14.66-.27.98-.4.23,8.19.42,16.39.57,24.59-1.99,0-4.07.91-6,3.09-7.97,9.61-7.46,25.46.08,35.23,1.54,2,3.66,3.73,6.05,4.75-.08,4.99-.19,9.98-.35,14.95-.3,34.82,9.77,75.09,40.39,95.5,16.88,10.42,34.17,12.7,50.21,9.11,23.3-5.22,43.94-22.84,56.86-45.89,7.45-12.77,11.71-27.03,15.32-41.27.52-2.12,1.03-4.24,1.51-6.38,4.52,3.57,10.19,5.75,16.01,4.14,17.94-4.74,25.86-40.51,16.14-54.77Zm-196.03,20.25c-.89-.92-1.64-1.97-2.25-3.1-4.2-7.78-4.83-17.91-1.87-26.29,1.16-3.21,2.5-4.87,3.99-5.47.19,11.62.26,23.24.14,34.86ZM149.63,14.98c11.76,3.95,22.61,9.73,31.92,17.3,11.08,8.98,19.98,20.47,25.62,34.32,5.21,12.76,8.07,26.33,9.2,40.2.03.23.05.46.07.68.87,11.31.62,22.8-.46,34.24-.65-3.78-1.51-7.52-2.48-11.22-1.9-6.76-4.28-13.16-7.12-19.22-.26-.59-.54-1.16-.83-1.75-11.23-23.17-28.92-41.15-50.16-54.09-21.88-13.34-47.52-21.33-73.78-24.12-5.82-.62-11.68-.98-17.54-1.09h-.03s-.12-.02-.12-.02c24.63-18.9,55.53-26.06,85.7-15.24Zm49.22,94.9c-2.97-.09-5.79-.52-8.54-1.23-.45-.12-.89-.23-1.33-.37-12.91-3.82-23.96-13.82-36.95-24.54-3.86-3.07-7.65-6.26-11.39-9.49-11.48-9.88-22.68-20.1-35.47-28.41-7.38-4.78-15.5-8.65-23.85-11.59,24.24,5.87,47.87,14.11,68.94,27.19,4.88,3.03,9.63,6.33,14.22,9.91,13.66,10.63,25.35,23.75,34.38,38.52Zm-8.4,85.36c-.02.06-.03.13-.06.2-1.67,5.66-3.43,11.3-5.31,16.9-3.57,10.74-7.61,21.41-13.47,31.1-11.57,20.27-31.56,37.73-54.2,42.06-9.02,1.74-18.46,1.38-27.97-1.72-10.44-3.16-19.71-9.33-27.03-17.41-18.5-21.01-24.9-50.65-25.18-78.15.12-4.12.1-9.6.13-14.21v-1.51c.02-.58.01-1.13.02-1.65-.08-11.69-.38-23.35-.84-35.03-.03-.91-.06-1.82-.11-2.73-.24-5.97-.54-11.94-.85-17.91l-.46-8.33c.17-12.76,4.33-36.32,31.89-43.44.62-.1,35.3-5.88,68.31,17.09.28.19.55.4.83.6,3.88,2.75,7.74,5.49,11.57,8.2,13.53,9.88,26.05,19.31,39.69,22.29-8.49,19.4-8.78,43.14.1,62.23,1.26,2.72,2.72,5.36,4.37,7.87.55.84,1.12,1.66,1.72,2.47-1.03,3.7-2.07,7.39-3.17,11.08Zm29.78-11.13c-3.96,11.24-11.48,19.66-23.95,14.16-.52-.22-1.05-.45-1.56-.71.71-3.16,1.4-6.32,2.03-9.48l.33-1.6h0c.12-.58.23-1.16.34-1.73.3-1.34.74-3.65,1.38-7.22.54-3,1.11-5.68,1.72-8.06,4.3-16.71,10.22-19.22,10.71-19.4,1.25-.37,2.55-.56,3.89-.55.12,0,.25,0,.38,0l1.52.16c.19.02.37.05.56.08.68.12,1.42.27,2.04.52.07.04.13.07.2.12,2.2,1.37,2.85,4.23,3.41,6.96.03.19.07.37.1.56,1.19,8.72-.22,17.89-3.09,26.18Z"/><path class="cls-1" d="m150.92,129.67c-11.35-.62-22.5,7.32-23.26,18.84l.83.87c9.87-7.73,23.15-10.8,34.31-3.85,2.98,1.82,5.68,4.04,8.19,6.5l.89-.81c.83-11.77-9.47-21.1-20.96-21.56Z"/><path class="cls-1" d="m131.13,154.85c4.04-.67,8.03-.92,11.98-.81-1.48,1.41-2.56,3.58-2.81,6.1-.46,4.65,2.05,8.69,5.59,9.04s6.78-3.13,7.23-7.78c.24-2.49-.37-4.81-1.54-6.47,2.52.45,5.03,1.05,7.53,1.83,2.68.87,5.15,1.81,7.92,2.62-7.96-10.77-25.77-13.88-35.91-4.52Z"/><path class="cls-1" d="m145.1,219.39c-1.49-.42-3.01-.31-4.35.59l-.03.3c4.46.74,6.73,4.13,5.55,8.52l-.46,1.65.28.11c4.69-2.34,4.09-9.7-.99-11.17Z"/><path class="cls-1" d="m69.71,220.92c17.07,14.05,45.02,19.63,64.83,8.26,2.04-1.22,3.97-2.65,5.72-4.23-3.07.78-5.98,1.6-8.94,2.13-20.79,4-41.38-1.04-61.61-6.16Z"/><path class="cls-1" d="m82.08,141.04c1.55.77,3.05,1.65,4.51,2.61,3.38,2.49,6.62,6.22,7.08,11.48.2,9.19-2.32,18.63-5.86,27.02-.76,1.9-1.74,3.85-2.54,5.74-.99,2.48-1.22,5.24-.63,7.8,1.02,5.1,5.37,8.73,10.13,10.26,8.76,2.71,17.71-.05,25.09-4.66-9.03,2.62-20.55,4.51-27.81-2.5-2.12-2.29-2.63-5.83-1.37-8.65.82-1.67,1.93-3.95,2.64-5.65,4.19-9.44,6.47-21.36,4.29-31.89t.01,0s0-.02-.02-.03c-.05-.29-.12-.57-.2-.86-.06-.26-.11-.51-.18-.75-.01-.08-.04-.15-.06-.24-4.07-15.67-16.23-21.63-16.23-21.63h0c-3.61-1.97-7.81-3-12.07-2.79-11.37.37-21.79,9.25-21.53,20.79l.9.8c9.17-8.56,22.13-12.77,33.85-6.82Z"/><path class="cls-1" d="m76.87,150.04c3.65.34,7.23.98,10.96,1.36-9.72-8.86-27.32-9.27-36.12,1.07,5.3-1.48,10.48-2.41,15.76-2.65-1.08,1.37-1.83,3.2-2.03,5.26-.46,4.65,2.05,8.69,5.58,9.04s6.79-3.13,7.24-7.78c.24-2.4-.33-4.63-1.4-6.29Z"/></g>
</svg>
