<?xml version="1.0" encoding="UTF-8"?><svg id="logo" xmlns="http://www.w3.org/2000/svg" viewBox="0 0 239.57 234.94"><defs><style>.cls-1{fill:#f2f2f2;}.cls-1,.cls-2,.cls-3{stroke-width:0px;}.cls-2{fill:#1d1d1b;}.cls-3{fill:#F7D7AD;}</style></defs><g id="Warstwa_3"><ellipse class="cls-3" cx="119.78" cy="119.08" rx="119.78" ry="104.67"/><path class="cls-2" d="m206.35,125.8c6.86,12.04-1.8,40.18-16.46,42.81-4.77.92-9.16-1.2-12.56-4.34-.52,1.68-1.06,3.34-1.62,5.01-3.81,11.17-8.14,22.32-14.93,32.06-11.84,17.62-29.51,30.4-48.51,33.07-13.07,1.83-26.77-1.11-39.61-10.54-23.2-18.34-28.66-51.23-26.17-79.09.45-3.98.86-7.96,1.25-11.95-1.85-.97-3.44-2.5-4.54-4.2-5.4-8.31-4.79-21.04,2.22-28.21,1.69-1.62,3.41-2.22,5-2.09.41-6.57.79-13.15,1.14-19.72-.27.09-.53.17-.81.26-8.76,2.75-18.9,2.66-21.42-7.81-1.75-8.36.98-17.78,4.54-25.28,8.29-17.01,26.66-26.7,44.92-25.77,3.13-2.82,6.49-5.43,10.01-7.77C103.37,2.52,122.1-2.14,139.64.94c17.44,3.12,34.14,11.76,46.41,24.59,4.2,4.37,7.87,9.23,10.89,14.53,13.7,24.51,12.93,54.7,5.24,82.31.12.03.23.07.35.11,1.63.58,3.02,2,3.81,3.32Zm-7.31,28.05c2.83-6.46,4.55-13.71,4.16-20.77-.01-.16-.03-.3-.04-.46-.27-2.22-.6-4.55-2.28-5.79-.04-.04-.09-.08-.15-.11-.49-.24-1.07-.41-1.6-.54-.15-.04-.28-.07-.44-.1l-1.21-.22c-.1-.01-.21-.02-.3-.03-1.07-.09-2.12-.03-3.16.19-.4.11-5.3,1.74-9.82,14.84-.65,1.86-1.28,3.97-1.91,6.34-.74,2.82-1.24,4.63-1.56,5.7-.12.44-.25.91-.39,1.35h0s-.36,1.27-.36,1.27c-.71,2.49-1.47,4.97-2.24,7.46.4.23.79.45,1.2.67,9.63,5.21,16.2-1.04,20.1-9.79Zm1.91-61.61c0-.18,0-.35-.01-.54-.01-11.18-1.43-22.23-4.77-32.79-3.62-11.46-10-21.23-18.3-29.14-6.97-6.66-15.28-12-24.44-15.92-23.46-10.61-48.66-6.87-69.61,6.66l.09.02h.02c4.69.48,9.35,1.15,13.98,2.02,20.84,3.93,40.86,11.99,57.52,24.08,16.18,11.74,29.18,27.27,36.68,46.56.19.48.37.96.54,1.45,1.88,5.03,3.37,10.32,4.46,15.85.54,3.03.99,6.08,1.26,9.14,1.61-9.08,2.55-18.28,2.58-27.39Zm-20.99-.76c2.16.75,4.38,1.28,6.76,1.54-6.27-12.4-14.79-23.67-25.03-33.06-3.45-3.17-7.03-6.12-10.75-8.86-16.03-11.84-34.42-19.96-53.44-26.23,6.5,2.9,12.75,6.52,18.35,10.82,9.7,7.49,18.01,16.39,26.57,25.05,2.78,2.83,5.6,5.62,8.51,8.34,9.72,9.41,17.91,18.14,28,22.04.34.14.69.26,1.04.37Zm-2.23,60.68c-.43-.68-.83-1.37-1.22-2.08-1.17-2.12-2.16-4.32-2.99-6.59-5.88-15.86-4.11-34.85,3.94-49.83-10.74-3.28-20.15-11.63-30.35-20.42-2.88-2.42-5.81-4.85-8.74-7.31l-.62-.53c-24.95-20.53-53.1-18.14-53.6-18.1-22.52,3.92-27.39,22.51-28.35,32.72l-.17,6.7c-.15,4.81-.29,9.61-.48,14.4-.02.73-.06,1.46-.09,2.19-.4,9.38-.91,18.73-1.59,28.11-.03.42-.07.85-.11,1.32l-.1,1.21c-.31,3.7-.66,8.08-1.02,11.37-1.55,22.05,1.66,46.19,15.12,64.21,5.33,6.95,12.36,12.49,20.52,15.69,7.4,3.08,14.94,3.99,22.29,3.18,18.4-2,35.54-14.69,46.12-30.18,5.31-7.37,9.25-15.66,12.79-24.03,1.86-4.36,3.64-8.76,5.35-13.18.02-.05.04-.11.05-.16,1.12-2.88,2.2-5.77,3.26-8.67Zm-129.66-22.82c.85-9.3,1.54-18.61,2.15-27.93-1.23.39-2.42,1.63-3.54,4.12-2.92,6.52-3.07,14.67-.21,21.17.42.95.95,1.83,1.6,2.63Z"/><path class="cls-1" d="m203.2,133.09c.4,7.05-1.32,14.31-4.16,20.77-3.89,8.75-10.47,15-20.1,9.79-.41-.22-.8-.44-1.2-.67.77-2.49,1.53-4.97,2.24-7.46l.36-1.26h0c.14-.46.26-.93.39-1.36.32-1.06.82-2.87,1.56-5.7.62-2.37,1.26-4.48,1.91-6.34,4.52-13.1,9.42-14.73,9.82-14.84,1.03-.22,2.08-.28,3.16-.19.09.01.2.02.3.03l1.21.22c.16.03.29.06.44.1.53.14,1.11.3,1.6.54.05.03.1.07.15.11,1.68,1.24,2.01,3.57,2.28,5.79.01.16.03.3.04.46Zm-3.24,2.03l.12-.3c-.31-.7-.73-1.3-1.23-1.8-.47-.48-1.03-.85-1.66-1.16-.41-.21-.82-.35-1.26-.46-3.8-.85-8.55,2.24-7.49,6.52l.28.15c1.26-2.03,3.34-3.23,5.6-3.6.03.66.05,1.3.05,1.95,0,.4,0,.8-.01,1.22-.02,1.82-.14,3.75-.43,5.65-.3,1.91-.76,3.78-1.48,5.51-.01.05-.04.11-.06.17-.17.36-.33.74-.51,1.09,0,.01-.01.02-.01.03,0,0-.01.01-.01.02-.57,1.09-1.25,2.1-2.08,3-1.2,1.29-2.7,2.32-4.55,2.97l.12.39c1.08.28,2.2.29,3.28.07-.03.1-.07.21-.1.32.06-.11.11-.24.18-.34,1.58-.33,3.08-1.16,4.31-2.24,4.43-4.1,5.76-10.75,4.05-16.4-.36-1.24-.89-2.42-1.54-3.51.92-.04,1.84.06,2.73.3.05.01.1.02.15.03l1.54.43Z"/><path class="cls-1" d="m200.94,91.71c.01.19.01.36.01.54-.03,9.11-.97,18.31-2.58,27.39-.27-3.06-.72-6.11-1.26-9.14-1.08-5.53-2.57-10.82-4.46-15.85-.17-.49-.35-.97-.54-1.45-7.5-19.29-20.49-34.82-36.68-46.56-16.65-12.09-36.68-20.15-57.52-24.08-4.62-.87-9.29-1.54-13.98-2.01h-.02s-.09-.03-.09-.03c20.94-13.54,46.14-17.28,69.61-6.66,9.16,3.93,17.47,9.26,24.44,15.92,8.3,7.9,14.67,17.68,18.3,29.14,3.34,10.56,4.76,21.61,4.77,32.79Z"/><path class="cls-2" d="m200.09,134.82l-.12.3-1.54-.43s-.09-.02-.15-.03c-.89-.24-1.81-.34-2.73-.3.66,1.09,1.18,2.27,1.54,3.51,1.71,5.65.37,12.3-4.05,16.4-1.23,1.08-2.73,1.91-4.31,2.24-.06.1-.11.23-.18.34.03-.11.07-.22.1-.32-1.08.22-2.2.21-3.28-.07l-.12-.39c1.85-.65,3.35-1.68,4.55-2.97.83-.9,1.51-1.91,2.08-3,0-.01.01-.02.01-.02,0-.01.01-.02.01-.03.18-.35.34-.73.51-1.09.02-.05.05-.11.06-.17.72-1.73,1.18-3.6,1.48-5.51.29-1.91.41-3.83.43-5.65.01-.42.01-.82.01-1.22,0-.65-.02-1.29-.05-1.95-2.26.37-4.34,1.57-5.6,3.6l-.28-.15c-1.06-4.28,3.69-7.37,7.49-6.52.44.1.85.25,1.26.46.62.3,1.19.68,1.66,1.16.5.5.92,1.1,1.23,1.8Z"/><path class="cls-1" d="m186.71,93.03c-2.37-.26-4.6-.79-6.76-1.54-.35-.11-.7-.24-1.04-.37-10.09-3.89-18.29-12.62-28-22.04-2.91-2.72-5.73-5.51-8.51-8.34-8.56-8.65-16.87-17.56-26.57-25.05-5.6-4.3-11.85-7.92-18.35-10.82,19.03,6.27,37.42,14.39,53.44,26.23,3.72,2.74,7.3,5.7,10.75,8.86,10.25,9.39,18.77,20.66,25.03,33.06Z"/><path class="cls-1" d="m176.51,150.09c.39.71.79,1.41,1.22,2.08-1.06,2.91-2.13,5.79-3.26,8.67-.01.04-.03.1-.05.16-1.71,4.43-3.49,8.82-5.35,13.18-3.54,8.37-7.48,16.66-12.79,24.03-10.58,15.49-27.72,28.18-46.12,30.18-7.34.81-14.88-.09-22.29-3.18-8.15-3.21-15.18-8.75-20.52-15.69-13.46-18.03-16.67-42.17-15.12-64.21.36-3.29.71-7.67,1.02-11.37l.1-1.21c.04-.47.08-.91.11-1.32.69-9.37,1.2-18.72,1.59-28.11.03-.73.07-1.46.09-2.19.19-4.79.33-9.59.48-14.4l.17-6.7c.96-10.21,5.82-28.8,28.35-32.72.5-.04,28.65-2.43,53.6,18.1l.62.53c2.93,2.46,5.85,4.89,8.74,7.31,10.2,8.79,19.61,17.14,30.35,20.42-8.05,14.97-9.82,33.97-3.94,49.83.83,2.27,1.82,4.47,2.99,6.59Zm-14.06-25.68c1.43-9.37-6.22-17.52-15.39-18.62-9.05-1.23-18.49,4.41-19.84,13.59l.6.75c8.4-5.56,19.23-7.15,27.72-.86,2.27,1.65,4.29,3.6,6.13,5.73l.77-.58Zm-10.58,3.6c2.09.86,4.01,1.78,6.18,2.6-5.68-9.13-19.73-12.78-28.46-5.95,3.28-.27,6.49-.22,9.64.14-1.28,1.03-2.28,2.7-2.65,4.7-.67,3.7,1.08,7.09,3.89,7.6,2.82.51,5.63-2.07,6.3-5.77.35-1.97.01-3.87-.81-5.28,1.99.52,3.96,1.17,5.9,1.96Zm-18.83,49.67c3.52.89,5.11,3.74,3.88,7.19l-.48,1.29.22.1c3.91-1.57,3.89-7.5-.06-9.01-1.17-.43-2.4-.44-3.52.19l-.04.24Zm-5.53,6.73c1.72-.84,3.35-1.86,4.85-3.02-2.51.43-4.88.91-7.29,1.12-16.91,1.86-33.06-3.5-48.94-8.91,12.77,12.36,34.78,18.63,51.38,10.81Zm-9.96-23.3c-7.39,1.52-16.75,2.28-22.11-3.8-1.54-1.97-1.73-4.84-.54-7.01.76-1.29,1.81-3.04,2.49-4.35,3.96-7.29,6.56-16.69,5.5-25.26t.01-.01l-.02-.02c-.02-.24-.06-.47-.09-.71-.03-.21-.06-.42-.09-.61l-.03-.19c-2.25-12.82-11.6-18.37-11.6-18.37h0c-2.77-1.81-6.06-2.91-9.49-3.02-9.13-.44-18.05,6-18.59,15.26l.67.71c7.89-6.27,18.55-8.8,27.54-3.28,1.2.72,2.34,1.52,3.45,2.38,2.54,2.22,4.89,5.4,4.93,9.64-.43,7.38-3.06,14.78-6.45,21.25-.73,1.47-1.63,2.98-2.41,4.44-.95,1.92-1.31,4.11-1.01,6.2.49,4.16,3.74,7.34,7.45,8.87,6.84,2.74,14.19,1.1,20.4-2.11Zm-31.11-43.81c2.9.51,5.72,1.26,8.69,1.8-7.22-7.73-21.28-9.2-28.99-1.48,4.34-.84,8.55-1.25,12.8-1.1-.96,1.02-1.68,2.44-1.97,4.07-.67,3.7,1.08,7.09,3.88,7.6,2.81.51,5.64-2.07,6.3-5.76.34-1.91.04-3.74-.71-5.13Z"/><path class="cls-2" d="m147.06,105.79c9.17,1.1,16.82,9.25,15.39,18.62l-.77.58c-1.84-2.12-3.86-4.08-6.13-5.73-8.49-6.29-19.32-4.7-27.72.86l-.6-.75c1.34-9.18,10.79-14.82,19.84-13.59Z"/><path class="cls-2" d="m158.04,130.62c-2.17-.82-4.08-1.74-6.18-2.6-1.95-.79-3.92-1.44-5.9-1.96.82,1.41,1.17,3.31.81,5.28-.67,3.7-3.48,6.28-6.3,5.77-2.81-.51-4.56-3.91-3.89-7.6.36-2,1.36-3.67,2.65-4.7-3.16-.35-6.36-.41-9.64-.14,8.73-6.83,22.79-3.19,28.46,5.95Z"/><path class="cls-2" d="m136.93,184.87c1.23-3.45-.36-6.3-3.88-7.19l.04-.24c1.12-.62,2.35-.61,3.52-.19,3.96,1.51,3.97,7.44.06,9.01l-.22-.1.48-1.29Z"/><path class="cls-2" d="m132.36,181.39c-1.5,1.16-3.13,2.18-4.85,3.02-16.6,7.82-38.61,1.55-51.38-10.81,15.88,5.42,32.03,10.78,48.94,8.91,2.41-.22,4.78-.7,7.29-1.12Z"/><path class="cls-2" d="m95.45,157.32c5.36,6.08,14.71,5.32,22.11,3.8-6.21,3.22-13.56,4.85-20.4,2.11-3.71-1.53-6.96-4.72-7.45-8.87-.3-2.08.06-4.28,1.01-6.2.77-1.46,1.68-2.97,2.41-4.44,3.38-6.48,6.02-13.87,6.45-21.25-.03-4.24-2.38-7.43-4.93-9.64-1.1-.86-2.25-1.67-3.45-2.38-9-5.52-19.65-2.99-27.54,3.28l-.67-.71c.54-9.26,9.46-15.69,18.59-15.26,3.43.11,6.72,1.21,9.49,3.03h0s9.35,5.54,11.6,18.36l.03.19c.03.2.06.41.09.61.03.24.07.47.09.71l.02.02s-.01,0-.01.01c1.06,8.57-1.54,17.97-5.5,25.26-.68,1.31-1.73,3.06-2.49,4.35-1.19,2.17-1,5.04.54,7.01Z"/><path class="cls-2" d="m95.14,119.11c-2.97-.54-5.79-1.29-8.69-1.8.75,1.4,1.05,3.23.71,5.13-.66,3.69-3.49,6.27-6.3,5.76-2.8-.51-4.55-3.91-3.88-7.6.29-1.63,1.01-3.05,1.97-4.07-4.25-.15-8.46.26-12.8,1.1,7.72-7.72,21.78-6.25,28.99,1.48Z"/><path class="cls-1" d="m50.21,101.43c-.6,9.32-1.29,18.63-2.15,27.93-.66-.8-1.19-1.69-1.6-2.63-2.86-6.5-2.71-14.65.21-21.17,1.12-2.49,2.31-3.74,3.54-4.12Z"/></g></svg>
